<?xml version="1.0" encoding="utf-8"?>
<!-- Generator: Adobe Illustrator 16.2.0, SVG Export Plug-In . SVG Version: 6.00 Build 0)  -->
<!DOCTYPE svg PUBLIC "-//W3C//DTD SVG 1.1//EN" "http://www.w3.org/Graphics/SVG/1.1/DTD/svg11.dtd">
<svg version="1.1" id="Слой_1" xmlns="http://www.w3.org/2000/svg" xmlns:xlink="http://www.w3.org/1999/xlink" x="0px" y="0px"
	 width="23px" height="26px" viewBox="0 0 23 26" style="enable-background:new 0 0 23 26;" xml:space="preserve">
<path d="M17,20.1c0.3-0.6,0.5-1.2,0.7-1.6c0.2-0.4,0.4-0.9,0.5-1.4c0.1-0.5,0.2-0.8,0.3-1.3s0.2-1.8,0.2-1.8h-2.9
	c-0.1,1-0.3,2.5-0.8,3.8L10.4,12c0.6-0.4,1.2-0.8,1.8-1.3c0.6-0.4,1.1-1,1.5-1.5c0.5-0.6,0.8-1.2,1.1-1.8c0.3-0.7,0.4-1.4,0.4-2.1
	c0-0.9-0.2-1.6-0.5-2.3c-0.3-0.7-0.8-1.2-1.4-1.7c-0.6-0.4-1.2-0.8-2-1C10.5,0.1,9.8,0,9,0C8,0,7.2,0.1,6.5,0.4
	C5.8,0.7,5.2,1.1,4.7,1.6C4.2,2.1,3.8,2.7,3.5,3.3c-0.3,0.6-0.4,1.3-0.4,2c0,0.6,0.1,1.2,0.2,1.8c0.2,0.5,0.4,1,0.6,1.5
	C4.3,9,4.6,9.4,5,9.9c0.3,0.5,0.7,0.9,1,1.4c-0.8,0.4-1.6,0.9-2.3,1.4c-0.7,0.5-1.4,1-1.9,1.7c-0.5,0.6-1,1.3-1.3,2.1
	C0.2,17.2,0,18.1,0,19.1c0,0.5,0.1,1.2,0.3,2c0.2,0.8,0.6,1.6,1.1,2.3c0.6,0.7,1.4,1.3,2.4,1.8C4.9,25.7,6.3,26,8,26
	c0.7,0,1.4-0.1,2.1-0.2c0.7-0.2,1.4-0.4,2-0.7c0.6-0.3,1.2-0.5,1.8-1c0.5-0.5,1-0.8,1.4-1.4L18,26h4L17,20.1z M7.2,3.4
	c0.6-0.4,1.3-0.7,2-0.7c0.9,0,1.6,0.3,2.2,0.8c0.5,0.5,0.8,1.2,0.8,1.9c0,0.6-0.1,1-0.3,1.5c-0.2,0.4-0.5,0.8-0.8,1.2
	c-0.3,0.4-0.7,0.7-1.1,1S9.1,9.7,8.7,9.9C8.4,9.5,8.1,9.2,7.8,8.8C7.6,8.5,7.3,8.1,7.1,7.7C6.8,7.4,6.6,7,6.5,6.6
	C6.3,6.2,6.2,5.8,6.2,5.4C6.2,4.5,6.5,3.8,7.2,3.4z M11.3,22.6c-0.9,0.6-2,0.8-3.1,0.8c-0.6,0-1.2-0.1-1.8-0.3
	c-0.6-0.2-1.1-0.5-1.6-0.9c-0.5-0.4-0.8-0.8-1.1-1.4s-0.4-1.1-0.4-1.8c0-0.8,0.1-1.4,0.4-2c0.2-0.6,0.6-1.1,1-1.5
	C5,15.1,5.5,14.7,6,14.3s1.1-0.7,1.7-1l5.9,7.1C13,21.3,12.2,22.1,11.3,22.6z"/>
</svg>
