<?xml version="1.0" encoding="utf-8"?>
<!-- Generator: Adobe Illustrator 16.2.0, SVG Export Plug-In . SVG Version: 6.00 Build 0)  -->
<!DOCTYPE svg PUBLIC "-//W3C//DTD SVG 1.1//EN" "http://www.w3.org/Graphics/SVG/1.1/DTD/svg11.dtd">
<svg version="1.1" id="Слой_1" xmlns="http://www.w3.org/2000/svg" xmlns:xlink="http://www.w3.org/1999/xlink" x="0px" y="0px"
	 width="15.1px" height="72.7px" viewBox="0 0 15.1 72.7" style="enable-background:new 0 0 15.1 72.7;" xml:space="preserve">
<g>
	<path d="M2.9,72.7L0,72c0-0.1,2.1-9.6,5.1-18.9c2.5-7.8,5.8-15.6,6.7-17.8c-0.9-2.1-4.1-9.3-6.6-16.5C2.2,9.9,0,0.8,0,0.7L2.9,0
		c0,0.1,2.1,9.1,5.1,17.9c2.9,8.4,6.7,16.8,6.8,16.9l0.3,0.6l-0.3,0.6c0,0.1-4,9.1-6.9,18.1C5,63.2,3,72.6,2.9,72.7z"/>
</g>
</svg>
